<svg version="1.1" id="Layer_1" xmlns="http://www.w3.org/2000/svg" xmlns:xlink="http://www.w3.org/1999/xlink" x="0px" y="0px"
	 width="100%" viewBox="0 0 496 496" enable-background="new 0 0 496 496" xml:space="preserve">
<path fill="#000000" opacity="1.000000" stroke="none" 
	d="
M309.233368,329.098572 
	C291.058136,373.532623 278.701355,419.172577 271.465881,466.220459 
	C271.036774,469.010712 270.716461,471.817719 270.350800,474.617645 
	C269.812897,478.736755 267.264465,479.941223 263.572937,479.022003 
	C257.831299,477.592285 250.722565,470.195984 252.009384,461.623718 
	C256.657745,430.658295 263.055054,400.133240 272.020355,370.145477 
	C281.818817,337.370819 294.233124,305.615662 309.400818,274.944550 
	C310.124359,273.481476 310.716705,271.953491 311.514008,270.125916 
	C306.940460,268.637360 302.635468,269.308655 298.431946,269.518005 
	C282.140991,270.329224 265.855835,271.272156 249.575867,272.284363 
	C240.780396,272.831207 231.983810,273.458740 223.217407,274.343933 
	C215.762802,275.096649 211.295807,271.204285 207.963379,265.305786 
	C200.727463,252.497910 199.060196,239.035141 203.335464,224.886551 
	C209.118011,205.749802 216.864090,187.304565 223.191193,168.358795 
	C229.360367,149.885895 235.174927,131.321457 238.205078,112.021454 
	C238.837494,107.993477 239.466141,103.891068 238.054886,99.165771 
	C230.820450,102.023018 225.229782,106.654091 219.636810,111.230255 
	C205.620514,122.698357 194.382568,136.796875 182.620895,150.409973 
	C154.386154,183.089279 127.597809,216.884659 103.566216,252.797821 
	C95.137100,265.394409 87.082253,278.241638 78.873962,290.985687 
	C74.689835,297.481903 72.087349,298.549744 66.914810,295.804657 
	C59.691936,291.971436 56.722935,285.492737 59.766041,279.444672 
	C66.504395,266.052490 73.563805,252.821075 80.245239,239.401093 
	C105.802910,188.067368 128.273727,135.387024 148.707230,81.823990 
	C151.058884,75.659531 153.638596,69.557579 153.934341,62.086246 
	C148.775330,63.362644 144.492859,65.392517 140.286011,67.641365 
	C123.968338,76.364235 110.148354,88.476273 96.446724,100.618256 
	C81.351517,113.995193 67.227310,128.402496 54.995090,144.522339 
	C50.234978,150.795303 46.288769,157.502594 44.950447,165.489334 
	C44.474773,168.328033 44.231262,171.020309 44.917034,173.869888 
	C45.489929,176.250458 46.259575,179.172668 43.782299,180.791931 
	C41.423508,182.333755 38.650135,181.583725 36.173374,180.318008 
	C28.314770,176.302002 24.737665,168.033081 26.022398,158.313904 
	C27.395475,147.926392 31.700153,138.869934 37.725742,130.548569 
	C59.290836,100.767006 85.798332,76.253937 116.842949,56.591648 
	C124.852768,51.518585 132.479919,45.734032 142.001556,43.621574 
	C155.938034,40.529648 170.292999,50.594128 172.348816,64.744202 
	C173.683075,73.928009 171.865799,82.724167 168.582718,91.102219 
	C159.593109,114.042877 150.196060,136.823807 140.976562,159.674515 
	C140.108932,161.824936 139.355835,164.021561 139.208115,166.734848 
	C140.773849,164.825455 142.340744,162.916992 143.905151,161.006516 
	C163.436829,137.154160 183.170364,113.478889 205.890549,92.519562 
	C212.458145,86.460976 219.982697,81.929352 228.667130,79.491653 
	C239.470795,76.459076 248.748520,80.684547 253.315964,90.968597 
	C258.453217,102.535637 258.282532,114.581970 255.952103,126.708405 
	C249.359650,161.012421 237.865448,193.780579 224.700531,226.022614 
	C221.543991,233.753250 218.852966,241.573242 219.191605,250.162888 
	C219.327728,253.615479 220.504578,254.915558 223.968613,254.693970 
	C236.919724,253.865524 249.880280,253.184402 262.837463,252.451324 
	C271.975647,251.934311 281.108582,251.265121 290.253693,250.944107 
	C305.400635,250.412369 320.553833,250.021973 335.707428,249.727951 
	C352.194092,249.408066 368.692749,248.824371 385.170868,249.144455 
	C413.663727,249.697876 442.050720,251.383408 469.160461,261.626617 
	C473.831146,263.391388 477.325317,266.014191 479.176239,270.652557 
	C480.175659,273.157104 481.165344,275.799011 479.194824,278.231598 
	C477.049377,280.880066 474.244812,279.674133 471.799591,278.866425 
	C462.321960,275.735718 452.913666,272.391083 442.982208,270.912567 
	C421.193207,267.668854 399.334473,266.609497 377.308014,267.903015 
	C363.184052,268.732452 349.007355,268.666351 334.854034,268.990784 
	C333.217468,269.028320 331.579285,268.995850 328.482330,268.995850 
	C334.954346,275.697754 331.205719,281.180878 328.352600,286.892883 
	C321.504700,300.602417 315.185577,314.559235 309.233368,329.098572 
z"/>
</svg>