<svg version="1.1" id="Layer_1" xmlns="http://www.w3.org/2000/svg" xmlns:xlink="http://www.w3.org/1999/xlink" x="0px" y="0px"
	 width="100%" viewBox="0 0 500 500" enable-background="new 0 0 500 500" xml:space="preserve">
<path fill="#9AC8CD" opacity="1.000000" stroke="none" 
	d="
M300.000000,501.000000 
	C200.000031,501.000000 100.500046,501.000000 1.000053,501.000000 
	C1.000036,334.333405 1.000036,167.666794 1.000018,1.000143 
	C167.666565,1.000095 334.333130,1.000095 500.999756,1.000048 
	C500.999847,167.666519 500.999847,334.333038 500.999939,500.999786 
	C434.166656,501.000000 367.333344,501.000000 300.000000,501.000000 
M136.931976,169.944229 
	C136.931976,169.944229 136.748444,169.766022 136.802429,169.024460 
	C145.098816,148.489563 153.565247,128.021011 161.616257,107.390350 
	C165.358215,97.801605 169.046631,88.076584 171.413727,78.094254 
	C174.794495,63.837154 170.245895,53.577858 159.361435,47.000805 
	C150.146759,41.432709 141.097107,42.895790 132.352142,47.848461 
	C94.571991,69.245094 62.365105,96.978889 37.117744,132.474579 
	C31.459429,140.429672 27.462172,149.154755 26.430960,159.077606 
	C25.418472,168.820267 29.243645,176.930313 37.178249,180.140625 
	C39.099556,180.917999 41.883766,180.889465 43.706261,180.031494 
	C44.635109,179.594238 44.423626,176.501144 44.529301,174.597504 
	C44.748322,170.652100 43.832676,166.308029 45.189472,162.832977 
	C47.821709,156.091263 50.862789,149.196823 55.214386,143.495148 
	C70.537209,123.418449 88.585068,105.894821 108.082275,89.869736 
	C120.450081,79.704437 132.897491,69.631760 147.932098,63.507160 
	C149.930969,62.692886 152.114212,62.331196 155.210144,61.488117 
	C154.339981,65.286354 153.993790,67.915092 153.131775,70.362129 
	C149.813080,79.782883 146.530914,89.224800 142.874527,98.516945 
	C118.700745,159.950912 91.870949,220.179688 60.927704,278.536133 
	C57.351318,285.280945 59.405304,290.872894 66.688812,295.042206 
	C72.073135,298.124329 74.281242,296.856964 79.130508,289.618103 
	C95.629425,264.989014 111.432213,239.821426 129.198471,216.132675 
	C149.069351,189.637787 170.626648,164.394806 191.772095,138.873856 
	C203.484680,124.737679 216.197769,111.507484 231.918823,101.627594 
	C234.173340,100.210754 236.691879,99.214035 239.932373,97.603271 
	C239.731308,100.532043 239.636215,102.162064 239.505142,103.789177 
	C237.940857,123.207649 232.532562,141.766373 226.388657,160.087463 
	C219.770447,179.823029 212.489044,199.335342 205.606186,218.983307 
	C200.469452,233.646790 199.644455,248.064682 207.023193,262.533325 
	C211.437805,271.189728 216.350845,274.669891 225.860611,273.722382 
	C233.476807,272.963562 241.111237,272.346069 248.750137,271.865692 
	C264.203064,270.894043 279.660461,269.975922 295.124603,269.209778 
	C300.646271,268.936188 306.192902,269.165924 312.589142,269.165924 
	C311.373566,271.886871 310.634369,273.691772 309.777100,275.438751 
	C280.779541,334.530151 261.382324,396.552307 252.792023,461.882324 
	C251.772873,469.633087 256.055420,476.276459 263.607849,478.514679 
	C267.044434,479.533112 269.216370,478.349945 269.859589,474.875488 
	C270.464783,471.606476 270.704132,468.271667 271.208832,464.981842 
	C280.857361,402.085785 299.813446,342.148712 328.690430,285.426392 
	C331.590057,279.730713 333.095398,274.760651 328.595459,269.434631 
	C328.481659,269.299957 328.744232,268.847260 328.866516,268.419556 
	C329.470947,268.329132 330.115112,268.156921 330.761780,268.147003 
	C355.913849,267.759216 381.070465,266.928864 406.216949,267.166687 
	C424.018341,267.335052 441.814026,268.916779 459.024017,274.163910 
	C463.484283,275.523773 467.832825,277.308044 472.355408,278.379181 
	C474.369995,278.856293 477.598450,278.821686 478.621399,277.615753 
	C479.714539,276.327148 479.400299,273.204987 478.740356,271.199036 
	C477.259216,266.696991 473.915619,263.921875 469.376465,262.212738 
	C448.877411,254.494278 427.514252,250.623611 405.817719,250.430008 
	C367.674652,250.089615 329.512573,250.683731 291.373535,251.549942 
	C268.913330,252.060028 246.478088,253.779633 224.041779,255.124771 
	C220.098373,255.361191 218.806656,254.058136 218.691055,250.161102 
	C218.399643,240.335876 221.957535,231.579254 225.495010,222.745880 
	C238.080032,191.319992 249.265610,159.451675 255.585205,126.075005 
	C257.792114,114.419312 258.010071,102.851051 253.139008,91.728241 
	C248.352600,80.798683 238.927124,76.191376 227.844620,80.425789 
	C220.959534,83.056450 213.648041,86.385315 208.503494,91.419617 
	C192.574417,107.007263 177.362885,123.353058 162.328003,139.820145 
	C153.476807,149.514511 145.488922,159.997101 136.931976,169.944229 
z"/>
<path fill="#FEFEFE" opacity="1.000000" stroke="none" 
	d="
M137.112778,170.125198 
	C145.488922,159.997101 153.476807,149.514511 162.328003,139.820145 
	C177.362885,123.353058 192.574417,107.007263 208.503494,91.419617 
	C213.648041,86.385315 220.959534,83.056450 227.844620,80.425789 
	C238.927124,76.191376 248.352600,80.798683 253.139008,91.728241 
	C258.010071,102.851051 257.792114,114.419312 255.585205,126.075005 
	C249.265610,159.451675 238.080032,191.319992 225.495010,222.745880 
	C221.957535,231.579254 218.399643,240.335876 218.691055,250.161102 
	C218.806656,254.058136 220.098373,255.361191 224.041779,255.124771 
	C246.478088,253.779633 268.913330,252.060028 291.373535,251.549942 
	C329.512573,250.683731 367.674652,250.089615 405.817719,250.430008 
	C427.514252,250.623611 448.877411,254.494278 469.376465,262.212738 
	C473.915619,263.921875 477.259216,266.696991 478.740356,271.199036 
	C479.400299,273.204987 479.714539,276.327148 478.621399,277.615753 
	C477.598450,278.821686 474.369995,278.856293 472.355408,278.379181 
	C467.832825,277.308044 463.484283,275.523773 459.024017,274.163910 
	C441.814026,268.916779 424.018341,267.335052 406.216949,267.166687 
	C381.070465,266.928864 355.913849,267.759216 330.761780,268.147003 
	C330.115112,268.156921 329.470947,268.329132 328.866516,268.419556 
	C328.744232,268.847260 328.481659,269.299957 328.595459,269.434631 
	C333.095398,274.760651 331.590057,279.730713 328.690430,285.426392 
	C299.813446,342.148712 280.857361,402.085785 271.208832,464.981842 
	C270.704132,468.271667 270.464783,471.606476 269.859589,474.875488 
	C269.216370,478.349945 267.044434,479.533112 263.607849,478.514679 
	C256.055420,476.276459 251.772873,469.633087 252.792023,461.882324 
	C261.382324,396.552307 280.779541,334.530151 309.777100,275.438751 
	C310.634369,273.691772 311.373566,271.886871 312.589142,269.165924 
	C306.192902,269.165924 300.646271,268.936188 295.124603,269.209778 
	C279.660461,269.975922 264.203064,270.894043 248.750137,271.865692 
	C241.111237,272.346069 233.476807,272.963562 225.860611,273.722382 
	C216.350845,274.669891 211.437805,271.189728 207.023193,262.533325 
	C199.644455,248.064682 200.469452,233.646790 205.606186,218.983307 
	C212.489044,199.335342 219.770447,179.823029 226.388657,160.087463 
	C232.532562,141.766373 237.940857,123.207649 239.505142,103.789177 
	C239.636215,102.162064 239.731308,100.532043 239.932373,97.603271 
	C236.691879,99.214035 234.173340,100.210754 231.918823,101.627594 
	C216.197769,111.507484 203.484680,124.737679 191.772095,138.873856 
	C170.626648,164.394806 149.069351,189.637787 129.198471,216.132675 
	C111.432213,239.821426 95.629425,264.989014 79.130508,289.618103 
	C74.281242,296.856964 72.073135,298.124329 66.688812,295.042206 
	C59.405304,290.872894 57.351318,285.280945 60.927704,278.536133 
	C91.870949,220.179688 118.700745,159.950912 142.874527,98.516945 
	C146.530914,89.224800 149.813080,79.782883 153.131775,70.362129 
	C153.993790,67.915092 154.339981,65.286354 155.210144,61.488117 
	C152.114212,62.331196 149.930969,62.692886 147.932098,63.507160 
	C132.897491,69.631760 120.450081,79.704437 108.082275,89.869736 
	C88.585068,105.894821 70.537209,123.418449 55.214386,143.495148 
	C50.862789,149.196823 47.821709,156.091263 45.189472,162.832977 
	C43.832676,166.308029 44.748322,170.652100 44.529301,174.597504 
	C44.423626,176.501144 44.635109,179.594238 43.706261,180.031494 
	C41.883766,180.889465 39.099556,180.917999 37.178249,180.140625 
	C29.243645,176.930313 25.418472,168.820267 26.430960,159.077606 
	C27.462172,149.154755 31.459429,140.429672 37.117744,132.474579 
	C62.365105,96.978889 94.571991,69.245094 132.352142,47.848461 
	C141.097107,42.895790 150.146759,41.432709 159.361435,47.000805 
	C170.245895,53.577858 174.794495,63.837154 171.413727,78.094254 
	C169.046631,88.076584 165.358215,97.801605 161.616257,107.390350 
	C153.565247,128.021011 145.098816,148.489563 136.638458,169.512222 
	C136.687241,170.041718 136.900009,170.083450 137.112778,170.125198 
z"/>
<path fill="#9AC8CD" opacity="1.000000" stroke="none" 
	d="
M137.022369,170.034714 
	C136.900009,170.083450 136.687241,170.041718 136.611450,169.882996 
	C136.748444,169.766022 136.931976,169.944229 137.022369,170.034714 
z"/>
</svg>