<svg version="1.1" id="Layer_1" xmlns="http://www.w3.org/2000/svg" xmlns:xlink="http://www.w3.org/1999/xlink" x="0px" y="0px"
	 width="100%" viewBox="0 0 500 500" enable-background="new 0 0 500 500" xml:space="preserve">
<path fill="#FFFFFF" opacity="1.000000" stroke="none" 
	d="
M501.000000,187.000000 
	C501.000000,291.999969 501.000000,396.499969 501.000000,500.999939 
	C334.333405,500.999969 167.666794,500.999969 1.000146,501.000000 
	C1.000097,334.333435 1.000097,167.666870 1.000049,1.000235 
	C167.666519,1.000157 334.333038,1.000157 500.999786,1.000078 
	C501.000000,62.833332 501.000000,124.666664 501.000000,187.000000 
M345.485565,40.994057 
	C340.408936,38.908340 335.286774,36.925106 330.273529,34.696831 
	C327.458344,33.445545 325.950165,34.113178 325.058197,37.021641 
	C324.181549,39.880245 323.228485,42.746243 321.940277,45.432175 
	C321.445343,46.464092 319.720428,47.840042 318.917603,47.636047 
	C314.319427,46.467667 309.830078,44.871075 305.181366,43.380577 
	C306.495178,38.225708 307.710693,33.456657 309.074402,28.106087 
	C252.590591,13.922884 198.850906,20.025579 146.616516,45.245499 
	C148.713394,49.485111 150.644791,52.980534 152.142853,56.652737 
	C152.632797,57.853756 152.531342,60.344551 151.784576,60.826450 
	C147.803726,63.395424 143.532471,65.514397 139.302002,67.821602 
	C136.401413,63.190865 133.779877,59.005646 130.831558,54.298710 
	C99.281548,73.451569 74.627190,98.711601 54.905952,129.595383 
	C59.523060,132.612762 63.787563,135.399719 68.365921,138.391785 
	C66.177490,142.347397 64.052094,145.893936 62.227074,149.588837 
	C60.953476,152.167343 59.467331,152.449890 57.063622,151.132019 
	C53.491238,149.173401 49.790421,147.449005 46.204929,145.655289 
	C29.193836,175.268661 18.326048,226.059906 21.714781,249.863464 
	C26.515764,249.863464 31.428776,249.863464 36.656338,249.863464 
	C36.656338,255.525604 36.656338,260.582123 36.656338,265.950684 
	C31.459303,266.482269 26.548634,266.984558 21.161995,267.535553 
	C24.176964,304.013824 34.577950,337.808441 53.586441,369.327118 
	C57.344742,367.045990 60.497448,364.860046 63.908298,363.206635 
	C65.139557,362.609772 67.798874,362.676849 68.419182,363.494080 
	C71.204704,367.163757 73.491020,371.212402 76.145187,375.422150 
	C73.912521,376.979034 71.855766,378.350708 69.868431,379.816528 
	C67.880280,381.282990 65.961548,382.843597 63.653320,384.642792 
	C85.022865,414.457794 111.904480,437.278687 144.137619,454.649719 
	C146.899506,449.679779 149.280441,445.395386 151.719711,441.005981 
	C155.885361,443.025299 159.571152,444.951294 163.374390,446.607605 
	C165.991257,447.747223 166.357788,449.196350 165.159363,451.692719 
	C163.535156,455.076080 162.242340,458.618500 160.668304,462.429352 
	C194.720917,476.484802 229.396408,482.631348 266.067139,479.877563 
	C265.688965,474.653870 265.358734,470.092041 264.992950,465.039368 
	C270.814911,464.407806 276.136963,463.830475 281.683838,463.228729 
	C282.202332,467.181427 282.709778,470.615143 283.087982,474.062988 
	C283.425293,477.138397 284.746918,478.376770 288.046051,477.797058 
	C314.644257,473.123322 339.883301,464.605682 363.377106,451.206665 
	C370.114624,447.364105 376.593933,443.068817 383.370789,438.870117 
	C380.230774,434.224670 377.563477,430.278595 374.759186,426.129822 
	C378.403900,423.350952 381.782806,420.961853 384.936554,418.305420 
	C387.093506,416.488495 388.636353,416.690186 390.360046,418.803955 
	C392.714874,421.691620 395.230438,424.448242 398.429993,428.126648 
	C408.466400,417.703400 418.316528,408.249756 427.260071,398.004730 
	C440.914185,382.363647 451.444000,364.619568 460.160126,345.782745 
	C461.528320,342.825806 461.102783,341.255005 457.989380,340.091583 
	C454.615509,338.830872 451.390839,337.170898 448.022980,335.649780 
	C449.651550,331.444916 451.291473,327.793762 452.462830,323.997986 
	C453.365387,321.073395 454.847717,320.329895 457.611084,321.357025 
	C461.009552,322.620178 464.456421,323.753082 468.346100,325.103271 
	C480.230011,290.456665 483.073547,255.330383 478.524811,218.795456 
	C473.322632,219.454437 468.486359,220.067078 463.410583,220.710052 
	C462.379028,215.160446 461.394135,209.861755 460.371399,204.359482 
	C463.914978,203.528046 467.099426,202.535049 470.358978,202.080887 
	C474.085968,201.561569 475.378204,200.484100 474.324951,196.247009 
	C467.088837,167.137253 454.731201,140.442871 437.310181,116.072586 
	C434.553192,112.215797 431.480591,108.584633 428.442841,104.707390 
	C424.083679,108.193253 420.263428,111.248146 416.442780,114.303391 
	C413.294495,110.965515 410.677368,107.948059 407.793884,105.211266 
	C405.530518,103.063049 405.744690,101.473221 407.953766,99.476120 
	C410.851105,96.856857 413.526550,93.992180 416.433533,91.097496 
	C395.811615,69.628967 372.446777,53.405518 345.485565,40.994057 
z"/>
<path fill="#9BC8CD" opacity="1.000000" stroke="none" 
	d="
M345.847504,41.106346 
	C372.446777,53.405518 395.811615,69.628967 416.433533,91.097496 
	C413.526550,93.992180 410.851105,96.856857 407.953766,99.476120 
	C405.744690,101.473221 405.530518,103.063049 407.793884,105.211266 
	C410.677368,107.948059 413.294495,110.965515 416.442780,114.303391 
	C420.263428,111.248146 424.083679,108.193253 428.442841,104.707390 
	C431.480591,108.584633 434.553192,112.215797 437.310181,116.072586 
	C454.731201,140.442871 467.088837,167.137253 474.324951,196.247009 
	C475.378204,200.484100 474.085968,201.561569 470.358978,202.080887 
	C467.099426,202.535049 463.914978,203.528046 460.371399,204.359482 
	C461.394135,209.861755 462.379028,215.160446 463.410583,220.710052 
	C468.486359,220.067078 473.322632,219.454437 478.524811,218.795456 
	C483.073547,255.330383 480.230011,290.456665 468.346100,325.103271 
	C464.456421,323.753082 461.009552,322.620178 457.611084,321.357025 
	C454.847717,320.329895 453.365387,321.073395 452.462830,323.997986 
	C451.291473,327.793762 449.651550,331.444916 448.022980,335.649780 
	C451.390839,337.170898 454.615509,338.830872 457.989380,340.091583 
	C461.102783,341.255005 461.528320,342.825806 460.160126,345.782745 
	C451.444000,364.619568 440.914185,382.363647 427.260071,398.004730 
	C418.316528,408.249756 408.466400,417.703400 398.429993,428.126648 
	C395.230438,424.448242 392.714874,421.691620 390.360046,418.803955 
	C388.636353,416.690186 387.093506,416.488495 384.936554,418.305420 
	C381.782806,420.961853 378.403900,423.350952 374.759186,426.129822 
	C377.563477,430.278595 380.230774,434.224670 383.370789,438.870117 
	C376.593933,443.068817 370.114624,447.364105 363.377106,451.206665 
	C339.883301,464.605682 314.644257,473.123322 288.046051,477.797058 
	C284.746918,478.376770 283.425293,477.138397 283.087982,474.062988 
	C282.709778,470.615143 282.202332,467.181427 281.683838,463.228729 
	C276.136963,463.830475 270.814911,464.407806 264.992950,465.039368 
	C265.358734,470.092041 265.688965,474.653870 266.067139,479.877563 
	C229.396408,482.631348 194.720917,476.484802 160.668304,462.429352 
	C162.242340,458.618500 163.535156,455.076080 165.159363,451.692719 
	C166.357788,449.196350 165.991257,447.747223 163.374390,446.607605 
	C159.571152,444.951294 155.885361,443.025299 151.719711,441.005981 
	C149.280441,445.395386 146.899506,449.679779 144.137619,454.649719 
	C111.904480,437.278687 85.022865,414.457794 63.653320,384.642792 
	C65.961548,382.843597 67.880280,381.282990 69.868431,379.816528 
	C71.855766,378.350708 73.912521,376.979034 76.145187,375.422150 
	C73.491020,371.212402 71.204704,367.163757 68.419182,363.494080 
	C67.798874,362.676849 65.139557,362.609772 63.908298,363.206635 
	C60.497448,364.860046 57.344742,367.045990 53.586441,369.327118 
	C34.577950,337.808441 24.176964,304.013824 21.161995,267.535553 
	C26.548634,266.984558 31.459303,266.482269 36.656338,265.950684 
	C36.656338,260.582123 36.656338,255.525604 36.656338,249.863464 
	C31.428776,249.863464 26.515764,249.863464 21.714781,249.863464 
	C18.326048,226.059906 29.193836,175.268661 46.204929,145.655289 
	C49.790421,147.449005 53.491238,149.173401 57.063622,151.132019 
	C59.467331,152.449890 60.953476,152.167343 62.227074,149.588837 
	C64.052094,145.893936 66.177490,142.347397 68.365921,138.391785 
	C63.787563,135.399719 59.523060,132.612762 54.905952,129.595383 
	C74.627190,98.711601 99.281548,73.451569 130.831558,54.298710 
	C133.779877,59.005646 136.401413,63.190865 139.302002,67.821602 
	C143.532471,65.514397 147.803726,63.395424 151.784576,60.826450 
	C152.531342,60.344551 152.632797,57.853756 152.142853,56.652737 
	C150.644791,52.980534 148.713394,49.485111 146.616516,45.245499 
	C198.850906,20.025579 252.590591,13.922884 309.074402,28.106087 
	C307.710693,33.456657 306.495178,38.225708 305.181366,43.380577 
	C309.830078,44.871075 314.319427,46.467667 318.917603,47.636047 
	C319.720428,47.840042 321.445343,46.464092 321.940277,45.432175 
	C323.228485,42.746243 324.181549,39.880245 325.058197,37.021641 
	C325.950165,34.113178 327.458344,33.445545 330.273529,34.696831 
	C335.286774,36.925106 340.408936,38.908340 345.847504,41.106346 
M329.471497,431.015656 
	C349.101105,422.665894 366.864197,411.348450 382.538818,396.908997 
	C408.778900,372.736755 427.684906,343.849854 438.302521,309.613770 
	C448.520966,276.664825 450.052673,243.333069 442.867859,209.691025 
	C435.820709,176.693726 421.432037,147.131119 399.020264,121.818344 
	C379.343323,99.594444 355.891418,82.426872 328.465424,70.657135 
	C292.801941,55.352341 255.752640,50.504608 217.770660,57.486481 
	C160.176483,68.073471 115.113487,98.251564 83.767342,147.988281 
	C66.978340,174.627274 57.737560,204.069122 55.254684,235.334061 
	C52.673801,267.833130 57.819504,299.330109 70.965836,329.324097 
	C88.368134,369.028351 115.754959,400.120178 153.390518,421.454193 
	C189.003860,441.641907 227.504364,449.895660 268.574036,446.228882 
	C289.513794,444.359344 309.415375,439.171478 329.471497,431.015656 
z"/>
<path fill="#FEFEFF" opacity="1.000000" stroke="none" 
	d="
M329.105042,431.127686 
	C309.415375,439.171478 289.513794,444.359344 268.574036,446.228882 
	C227.504364,449.895660 189.003860,441.641907 153.390518,421.454193 
	C115.754959,400.120178 88.368134,369.028351 70.965836,329.324097 
	C57.819504,299.330109 52.673801,267.833130 55.254684,235.334061 
	C57.737560,204.069122 66.978340,174.627274 83.767342,147.988281 
	C115.113487,98.251564 160.176483,68.073471 217.770660,57.486481 
	C255.752640,50.504608 292.801941,55.352341 328.465424,70.657135 
	C355.891418,82.426872 379.343323,99.594444 399.020264,121.818344 
	C421.432037,147.131119 435.820709,176.693726 442.867859,209.691025 
	C450.052673,243.333069 448.520966,276.664825 438.302521,309.613770 
	C427.684906,343.849854 408.778900,372.736755 382.538818,396.908997 
	C366.864197,411.348450 349.101105,422.665894 329.105042,431.127686 
M148.137253,265.670898 
	C170.080048,232.357208 194.710663,201.108109 221.502441,171.607391 
	C229.052963,163.293411 238.069382,156.298218 246.548309,148.851715 
	C248.031982,147.548721 250.187103,147.010284 252.032120,146.118744 
	C252.572830,146.404785 253.113541,146.690811 253.654236,146.976837 
	C251.301987,157.795563 249.693146,168.844177 246.434143,179.382462 
	C240.643143,198.108170 233.881104,216.534637 227.468323,235.066574 
	C223.697510,245.963684 223.836807,256.578827 229.187561,266.993378 
	C231.894730,272.262512 235.198135,274.419952 241.055450,274.070465 
	C255.521912,273.207367 269.978546,272.155823 284.452301,271.449341 
	C291.336060,271.113312 298.249756,271.391602 305.189026,271.391602 
	C305.189026,271.568970 305.291718,271.937073 305.172638,272.207550 
	C304.302551,274.183777 303.424316,276.158020 302.482025,278.100555 
	C282.067780,320.184082 268.833588,364.441833 262.053253,410.695038 
	C261.299622,415.836212 262.697784,419.453278 266.880768,422.234039 
	C271.730530,425.458069 274.110291,424.464691 274.904541,418.719452 
	C281.453125,371.350342 295.497864,326.312347 316.956055,283.590881 
	C319.166992,279.189087 321.574310,274.988647 316.803558,269.933685 
	C332.017426,269.279755 346.633820,269.077454 361.241577,269.346039 
	C372.216583,269.547821 383.267212,269.686462 394.122986,271.095154 
	C403.447662,272.305206 412.530762,275.333191 421.753906,277.409851 
	C423.395111,277.779388 425.198730,277.427643 426.927338,277.408966 
	C426.898315,275.526276 427.613647,273.053894 426.686066,271.883026 
	C424.724030,269.406403 422.226746,266.782806 419.381836,265.672211 
	C404.499329,259.862396 388.819702,257.187073 372.970337,257.210968 
	C340.491821,257.259918 308.011871,258.033661 275.538147,258.761017 
	C263.084076,259.039978 250.645401,260.007080 237.913620,260.675629 
	C235.992661,253.901962 238.309006,247.841080 240.340973,241.727737 
	C247.779251,219.348907 255.481384,197.051178 262.462311,174.530167 
	C265.265747,165.486115 266.400177,155.947021 264.097778,146.399628 
	C260.849243,132.929153 251.483658,128.165604 239.430252,134.950409 
	C232.578445,138.807266 226.001450,143.808914 220.656036,149.555710 
	C207.394012,163.813599 194.910049,178.795273 182.114899,193.487381 
	C181.014984,194.750381 179.925125,196.022171 178.830597,197.289871 
	C178.317978,195.295685 178.744736,193.938538 179.282791,192.627029 
	C183.067978,183.400803 187.015717,174.238449 190.639908,164.949722 
	C194.742264,154.435516 199.185349,143.992538 202.333878,133.184616 
	C205.733032,121.516365 202.021790,113.034172 193.220215,108.226501 
	C186.223526,104.404716 179.418533,105.779297 173.360458,109.786507 
	C161.578781,117.579651 149.759186,125.419167 138.711945,134.192245 
	C125.358772,144.796570 114.053360,157.569565 104.367836,171.639191 
	C99.166962,179.194214 95.873352,187.439026 97.511551,196.978409 
	C98.387367,202.078369 101.747368,204.655685 106.227654,206.242676 
	C109.071587,207.250031 110.602234,206.080688 110.142792,203.186050 
	C108.432556,192.411057 113.579048,184.185715 119.900749,176.411804 
	C134.602249,158.333130 151.593384,142.648224 170.566956,129.192535 
	C176.433807,125.031876 183.113113,122.016815 189.420441,118.477242 
	C189.915573,118.901535 190.410706,119.325836 190.905838,119.750137 
	C189.739120,123.802475 188.863068,127.966034 187.361542,131.890259 
	C168.633774,180.834442 147.827148,228.855331 123.350128,275.234497 
	C122.574059,276.704956 121.667046,278.131073 121.093765,279.678864 
	C119.788254,283.203583 122.584930,287.795593 127.003799,289.992065 
	C130.818909,291.888458 132.750320,289.979279 134.629730,286.923523 
	C138.900604,279.979492 143.385529,273.167053 148.137253,265.670898 
z"/>
<path fill="#1D2A58" opacity="1.000000" stroke="none" 
	d="
M147.960358,265.986023 
	C143.385529,273.167053 138.900604,279.979492 134.629730,286.923523 
	C132.750320,289.979279 130.818909,291.888458 127.003799,289.992065 
	C122.584930,287.795593 119.788254,283.203583 121.093765,279.678864 
	C121.667046,278.131073 122.574059,276.704956 123.350128,275.234497 
	C147.827148,228.855331 168.633774,180.834442 187.361542,131.890259 
	C188.863068,127.966034 189.739120,123.802475 190.905838,119.750137 
	C190.410706,119.325836 189.915573,118.901535 189.420441,118.477242 
	C183.113113,122.016815 176.433807,125.031876 170.566956,129.192535 
	C151.593384,142.648224 134.602249,158.333130 119.900749,176.411804 
	C113.579048,184.185715 108.432556,192.411057 110.142792,203.186050 
	C110.602234,206.080688 109.071587,207.250031 106.227654,206.242676 
	C101.747368,204.655685 98.387367,202.078369 97.511551,196.978409 
	C95.873352,187.439026 99.166962,179.194214 104.367836,171.639191 
	C114.053360,157.569565 125.358772,144.796570 138.711945,134.192245 
	C149.759186,125.419167 161.578781,117.579651 173.360458,109.786507 
	C179.418533,105.779297 186.223526,104.404716 193.220215,108.226501 
	C202.021790,113.034172 205.733032,121.516365 202.333878,133.184616 
	C199.185349,143.992538 194.742264,154.435516 190.639908,164.949722 
	C187.015717,174.238449 183.067978,183.400803 179.282791,192.627029 
	C178.744736,193.938538 178.317978,195.295685 178.830597,197.289871 
	C179.925125,196.022171 181.014984,194.750381 182.114899,193.487381 
	C194.910049,178.795273 207.394012,163.813599 220.656036,149.555710 
	C226.001450,143.808914 232.578445,138.807266 239.430252,134.950409 
	C251.483658,128.165604 260.849243,132.929153 264.097778,146.399628 
	C266.400177,155.947021 265.265747,165.486115 262.462311,174.530167 
	C255.481384,197.051178 247.779251,219.348907 240.340973,241.727737 
	C238.309006,247.841080 235.992661,253.901962 237.913620,260.675629 
	C250.645401,260.007080 263.084076,259.039978 275.538147,258.761017 
	C308.011871,258.033661 340.491821,257.259918 372.970337,257.210968 
	C388.819702,257.187073 404.499329,259.862396 419.381836,265.672211 
	C422.226746,266.782806 424.724030,269.406403 426.686066,271.883026 
	C427.613647,273.053894 426.898315,275.526276 426.927338,277.408966 
	C425.198730,277.427643 423.395111,277.779388 421.753906,277.409851 
	C412.530762,275.333191 403.447662,272.305206 394.122986,271.095154 
	C383.267212,269.686462 372.216583,269.547821 361.241577,269.346039 
	C346.633820,269.077454 332.017426,269.279755 316.803558,269.933685 
	C321.574310,274.988647 319.166992,279.189087 316.956055,283.590881 
	C295.497864,326.312347 281.453125,371.350342 274.904541,418.719452 
	C274.110291,424.464691 271.730530,425.458069 266.880768,422.234039 
	C262.697784,419.453278 261.299622,415.836212 262.053253,410.695038 
	C268.833588,364.441833 282.067780,320.184082 302.482025,278.100555 
	C303.424316,276.158020 304.302551,274.183777 305.172638,272.207550 
	C305.291718,271.937073 305.189026,271.568970 305.189026,271.391602 
	C298.249756,271.391602 291.336060,271.113312 284.452301,271.449341 
	C269.978546,272.155823 255.521912,273.207367 241.055450,274.070465 
	C235.198135,274.419952 231.894730,272.262512 229.187561,266.993378 
	C223.836807,256.578827 223.697510,245.963684 227.468323,235.066574 
	C233.881104,216.534637 240.643143,198.108170 246.434143,179.382462 
	C249.693146,168.844177 251.301987,157.795563 253.654236,146.976837 
	C253.113541,146.690811 252.572830,146.404785 252.032120,146.118744 
	C250.187103,147.010284 248.031982,147.548721 246.548309,148.851715 
	C238.069382,156.298218 229.052963,163.293411 221.502441,171.607391 
	C194.710663,201.108109 170.080048,232.357208 147.960358,265.986023 
z"/>
</svg>