<svg version="1.1" id="Layer_1" xmlns="http://www.w3.org/2000/svg" xmlns:xlink="http://www.w3.org/1999/xlink" x="0px" y="0px"
	 width="100%" viewBox="0 0 500 500" enable-background="new 0 0 500 500" xml:space="preserve">
<path fill="#9AC8CD" opacity="1.000000" stroke="none" 
	d="
M501.000000,187.000000 
	C501.000000,291.999969 501.000000,396.499969 501.000000,500.999939 
	C334.333405,500.999969 167.666794,500.999969 1.000146,501.000000 
	C1.000097,334.333435 1.000097,167.666870 1.000049,1.000235 
	C167.666519,1.000157 334.333038,1.000157 500.999786,1.000078 
	C501.000000,62.833332 501.000000,124.666664 501.000000,187.000000 
M29.191381,313.270813 
	C34.936817,332.777161 42.475761,351.490479 53.439861,369.093811 
	C57.243019,366.910828 60.570503,364.712006 64.161911,363.101898 
	C65.360046,362.564758 67.958031,362.981323 68.669640,363.913483 
	C71.358398,367.435455 73.534904,371.348480 76.049179,375.347473 
	C72.952042,377.624664 70.293747,379.925385 67.313324,381.678406 
	C63.967541,383.646362 64.042816,385.473114 66.223274,388.389069 
	C85.114868,413.653046 108.366997,433.972473 135.572617,449.819427 
	C144.058731,454.762512 144.341095,454.760773 148.385941,445.995544 
	C150.380402,441.673584 152.303802,440.910248 156.593506,443.222839 
	C166.157120,448.378693 166.409912,448.213928 162.241623,458.196045 
	C160.913345,461.376953 161.079117,463.044037 164.619110,464.099731 
	C177.031998,467.801361 189.185974,472.805939 201.839355,475.157288 
	C217.943741,478.149994 234.420395,479.245667 250.776703,480.711151 
	C255.626770,481.145691 260.612122,480.070190 265.850464,479.662079 
	C265.547852,477.192963 265.188202,475.257690 265.093109,473.309509 
	C264.672852,464.701660 264.928436,464.450806 273.571564,464.012604 
	C282.082123,463.581085 282.240662,463.568787 282.942078,472.604889 
	C283.275970,476.906616 284.491272,478.205750 289.164978,477.383728 
	C314.293732,472.964081 338.094574,464.797302 360.507416,452.701447 
	C368.173126,448.564423 375.397552,443.609711 383.217529,438.785553 
	C380.732666,435.229187 378.789673,432.355743 376.745972,429.555786 
	C375.369537,427.670044 373.974060,425.409515 376.872833,424.225769 
	C381.309021,422.414215 383.365662,414.810272 390.022095,418.602783 
	C391.238770,419.296021 391.937988,420.868774 392.934967,421.982849 
	C394.448730,423.674316 396.014038,425.319672 397.891815,427.345276 
	C400.407593,424.953064 402.454681,422.806702 404.703827,420.898499 
	C429.034912,400.255859 446.594482,374.634369 460.068237,345.965302 
	C461.594757,342.717194 460.753326,341.112366 457.529633,339.953247 
	C454.320435,338.799408 451.252869,337.251617 447.995453,335.820465 
	C449.634888,331.548798 451.208252,328.045166 452.312469,324.399384 
	C453.355194,320.956787 455.232605,320.429718 458.325623,321.612885 
	C461.516235,322.833344 464.808350,323.788483 468.206970,324.909454 
	C468.835510,323.330872 469.311554,322.278381 469.679901,321.189514 
	C480.557922,289.034241 481.758209,255.970993 479.033966,222.516876 
	C478.759888,219.151306 476.988953,218.741364 474.356720,219.116562 
	C470.803345,219.623077 467.255402,220.167618 463.469452,220.730911 
	C462.531372,216.146606 461.962799,212.018829 460.791962,208.069565 
	C459.838745,204.854156 461.249481,203.847443 463.907593,203.260849 
	C467.556488,202.455582 471.190826,201.584259 475.117065,200.675125 
	C466.882355,164.640366 451.432678,133.111313 428.410095,104.706253 
	C424.982361,107.514046 421.961151,109.827873 419.133728,112.358253 
	C417.045807,114.226814 415.359833,114.076317 413.634186,112.009804 
	C410.978271,108.829247 408.299286,105.667992 404.593597,101.267853 
	C408.495087,98.218033 412.526733,95.066452 416.616699,91.869301 
	C415.058868,89.971687 414.414154,89.009323 413.600403,88.221550 
	C400.077484,75.129692 385.775696,62.905220 369.292603,53.759739 
	C356.819122,46.838989 343.632294,41.206844 330.789124,34.947506 
	C327.633606,33.409611 325.848053,34.190964 324.884338,37.605137 
	C324.117737,40.321220 323.158875,43.029873 321.872559,45.529369 
	C321.358185,46.528858 319.552185,47.731983 318.650146,47.516941 
	C314.169800,46.448845 309.794800,44.938652 305.015137,43.471340 
	C306.354462,38.221561 307.566803,33.469505 308.903870,28.228590 
	C252.450027,14.176221 198.812134,19.892471 146.665482,45.296070 
	C148.707870,49.444904 150.601898,52.776943 151.960190,56.314671 
	C152.476395,57.659176 152.352570,60.357159 151.504639,60.927162 
	C147.704117,63.481983 143.537674,65.492470 139.236542,67.845329 
	C137.251846,64.555893 135.341156,61.822273 133.882553,58.865631 
	C131.914200,54.875668 129.833267,54.723625 126.115501,57.096123 
	C105.137840,70.483025 87.147835,87.165863 71.463905,106.347107 
	C65.531830,113.601952 60.369812,121.486443 54.710007,129.286194 
	C59.502625,132.619324 65.874428,134.772552 66.691292,138.235947 
	C67.573135,141.974884 63.271980,146.944305 61.195435,151.359894 
	C60.997887,151.779953 60.542137,152.078583 59.856594,152.803162 
	C55.388508,150.591522 50.833721,148.336945 45.646351,145.769257 
	C43.697502,149.962509 41.757534,153.933762 39.987057,157.979187 
	C28.812555,183.512238 22.143616,210.145050 21.057529,238.038208 
	C20.610094,249.529434 20.908314,249.540924 32.615463,250.005539 
	C33.280937,250.031937 34.094189,249.831757 34.579124,250.142288 
	C35.442200,250.694992 36.543316,251.436127 36.787281,252.309952 
	C39.637314,262.518066 36.746655,266.608704 26.569305,266.998291 
	C25.903446,267.023773 25.237381,267.044250 24.571657,267.072784 
	C21.764702,267.193054 20.722149,268.708221 21.225983,271.379395 
	C23.810347,285.080902 26.406828,298.780090 29.191381,313.270813 
z"/>
<path fill="#E1F7F5" opacity="1.000000" stroke="none" 
	d="
M29.095228,312.875458 
	C26.406828,298.780090 23.810347,285.080902 21.225983,271.379395 
	C20.722149,268.708221 21.764702,267.193054 24.571657,267.072784 
	C25.237381,267.044250 25.903446,267.023773 26.569305,266.998291 
	C36.746655,266.608704 39.637314,262.518066 36.787281,252.309952 
	C36.543316,251.436127 35.442200,250.694992 34.579124,250.142288 
	C34.094189,249.831757 33.280937,250.031937 32.615463,250.005539 
	C20.908314,249.540924 20.610094,249.529434 21.057529,238.038208 
	C22.143616,210.145050 28.812555,183.512238 39.987057,157.979187 
	C41.757534,153.933762 43.697502,149.962509 45.646351,145.769257 
	C50.833721,148.336945 55.388508,150.591522 59.856594,152.803162 
	C60.542137,152.078583 60.997887,151.779953 61.195435,151.359894 
	C63.271980,146.944305 67.573135,141.974884 66.691292,138.235947 
	C65.874428,134.772552 59.502625,132.619324 54.710007,129.286194 
	C60.369812,121.486443 65.531830,113.601952 71.463905,106.347107 
	C87.147835,87.165863 105.137840,70.483025 126.115501,57.096123 
	C129.833267,54.723625 131.914200,54.875668 133.882553,58.865631 
	C135.341156,61.822273 137.251846,64.555893 139.236542,67.845329 
	C143.537674,65.492470 147.704117,63.481983 151.504639,60.927162 
	C152.352570,60.357159 152.476395,57.659176 151.960190,56.314671 
	C150.601898,52.776943 148.707870,49.444904 146.665482,45.296070 
	C198.812134,19.892471 252.450027,14.176221 308.903870,28.228590 
	C307.566803,33.469505 306.354462,38.221561 305.015137,43.471340 
	C309.794800,44.938652 314.169800,46.448845 318.650146,47.516941 
	C319.552185,47.731983 321.358185,46.528858 321.872559,45.529369 
	C323.158875,43.029873 324.117737,40.321220 324.884338,37.605137 
	C325.848053,34.190964 327.633606,33.409611 330.789124,34.947506 
	C343.632294,41.206844 356.819122,46.838989 369.292603,53.759739 
	C385.775696,62.905220 400.077484,75.129692 413.600403,88.221550 
	C414.414154,89.009323 415.058868,89.971687 416.616699,91.869301 
	C412.526733,95.066452 408.495087,98.218033 404.593597,101.267853 
	C408.299286,105.667992 410.978271,108.829247 413.634186,112.009804 
	C415.359833,114.076317 417.045807,114.226814 419.133728,112.358253 
	C421.961151,109.827873 424.982361,107.514046 428.410095,104.706253 
	C451.432678,133.111313 466.882355,164.640366 475.117065,200.675125 
	C471.190826,201.584259 467.556488,202.455582 463.907593,203.260849 
	C461.249481,203.847443 459.838745,204.854156 460.791962,208.069565 
	C461.962799,212.018829 462.531372,216.146606 463.469452,220.730911 
	C467.255402,220.167618 470.803345,219.623077 474.356720,219.116562 
	C476.988953,218.741364 478.759888,219.151306 479.033966,222.516876 
	C481.758209,255.970993 480.557922,289.034241 469.679901,321.189514 
	C469.311554,322.278381 468.835510,323.330872 468.206970,324.909454 
	C464.808350,323.788483 461.516235,322.833344 458.325623,321.612885 
	C455.232605,320.429718 453.355194,320.956787 452.312469,324.399384 
	C451.208252,328.045166 449.634888,331.548798 447.995453,335.820465 
	C451.252869,337.251617 454.320435,338.799408 457.529633,339.953247 
	C460.753326,341.112366 461.594757,342.717194 460.068237,345.965302 
	C446.594482,374.634369 429.034912,400.255859 404.703827,420.898499 
	C402.454681,422.806702 400.407593,424.953064 397.891815,427.345276 
	C396.014038,425.319672 394.448730,423.674316 392.934967,421.982849 
	C391.937988,420.868774 391.238770,419.296021 390.022095,418.602783 
	C383.365662,414.810272 381.309021,422.414215 376.872833,424.225769 
	C373.974060,425.409515 375.369537,427.670044 376.745972,429.555786 
	C378.789673,432.355743 380.732666,435.229187 383.217529,438.785553 
	C375.397552,443.609711 368.173126,448.564423 360.507416,452.701447 
	C338.094574,464.797302 314.293732,472.964081 289.164978,477.383728 
	C284.491272,478.205750 283.275970,476.906616 282.942078,472.604889 
	C282.240662,463.568787 282.082123,463.581085 273.571564,464.012604 
	C264.928436,464.450806 264.672852,464.701660 265.093109,473.309509 
	C265.188202,475.257690 265.547852,477.192963 265.850464,479.662079 
	C260.612122,480.070190 255.626770,481.145691 250.776703,480.711151 
	C234.420395,479.245667 217.943741,478.149994 201.839355,475.157288 
	C189.185974,472.805939 177.031998,467.801361 164.619110,464.099731 
	C161.079117,463.044037 160.913345,461.376953 162.241623,458.196045 
	C166.409912,448.213928 166.157120,448.378693 156.593506,443.222839 
	C152.303802,440.910248 150.380402,441.673584 148.385941,445.995544 
	C144.341095,454.760773 144.058731,454.762512 135.572617,449.819427 
	C108.366997,433.972473 85.114868,413.653046 66.223274,388.389069 
	C64.042816,385.473114 63.967541,383.646362 67.313324,381.678406 
	C70.293747,379.925385 72.952042,377.624664 76.049179,375.347473 
	C73.534904,371.348480 71.358398,367.435455 68.669640,363.913483 
	C67.958031,362.981323 65.360046,362.564758 64.161911,363.101898 
	C60.570503,364.712006 57.243019,366.910828 53.439861,369.093811 
	C42.475761,351.490479 34.936817,332.777161 29.095228,312.875458 
M330.738098,430.224121 
	C336.066711,427.526550 341.477234,424.978180 346.709534,422.105133 
	C367.596893,410.636139 385.784760,395.794556 400.987396,377.459564 
	C418.463165,356.383179 431.686249,332.853363 438.976501,306.395844 
	C442.222168,294.616760 444.657074,282.460571 445.860870,270.317017 
	C446.998108,258.844971 446.923370,247.076569 445.773895,235.599548 
	C444.394043,221.822281 442.495636,207.878845 438.718872,194.605713 
	C431.131866,167.941696 418.020203,144.036102 399.705048,122.924904 
	C382.780212,103.416183 362.965576,87.671021 340.017395,76.236420 
	C317.456909,64.994987 293.662781,57.671448 268.154053,55.704094 
	C249.413315,54.258724 230.925751,55.018070 212.655228,58.422428 
	C192.112930,62.250084 172.699066,69.703964 154.452744,80.114021 
	C120.168373,99.674255 93.621574,126.709846 75.674995,161.874664 
	C65.565750,181.682861 59.067940,202.790863 56.151169,224.867065 
	C54.980423,233.728119 54.047131,242.722565 54.223019,251.632263 
	C54.418514,261.535461 55.794601,271.437164 57.024464,281.293640 
	C59.646809,302.309937 66.463898,322.151306 76.127113,340.804077 
	C86.882912,361.565857 100.910004,380.040100 118.272049,395.978119 
	C130.492249,407.196014 143.671661,417.062195 158.350906,424.519592 
	C193.268784,442.258667 230.156586,450.242706 269.559967,446.265381 
	C290.660370,444.135559 310.561768,438.402039 330.738098,430.224121 
z"/>
<path fill="#9AC8CD" opacity="1.000000" stroke="none" 
	d="
M330.385681,430.373718 
	C310.561768,438.402039 290.660370,444.135559 269.559967,446.265381 
	C230.156586,450.242706 193.268784,442.258667 158.350906,424.519592 
	C143.671661,417.062195 130.492249,407.196014 118.272049,395.978119 
	C100.910004,380.040100 86.882912,361.565857 76.127113,340.804077 
	C66.463898,322.151306 59.646809,302.309937 57.024464,281.293640 
	C55.794601,271.437164 54.418514,261.535461 54.223019,251.632263 
	C54.047131,242.722565 54.980423,233.728119 56.151169,224.867065 
	C59.067940,202.790863 65.565750,181.682861 75.674995,161.874664 
	C93.621574,126.709846 120.168373,99.674255 154.452744,80.114021 
	C172.699066,69.703964 192.112930,62.250084 212.655228,58.422428 
	C230.925751,55.018070 249.413315,54.258724 268.154053,55.704094 
	C293.662781,57.671448 317.456909,64.994987 340.017395,76.236420 
	C362.965576,87.671021 382.780212,103.416183 399.705048,122.924904 
	C418.020203,144.036102 431.131866,167.941696 438.718872,194.605713 
	C442.495636,207.878845 444.394043,221.822281 445.773895,235.599548 
	C446.923370,247.076569 446.998108,258.844971 445.860870,270.317017 
	C444.657074,282.460571 442.222168,294.616760 438.976501,306.395844 
	C431.686249,332.853363 418.463165,356.383179 400.987396,377.459564 
	C385.784760,395.794556 367.596893,410.636139 346.709534,422.105133 
	C341.477234,424.978180 336.066711,427.526550 330.385681,430.373718 
M130.926224,260.382050 
	C127.694710,266.587677 124.360657,272.742859 121.270828,279.018250 
	C119.469223,282.677277 121.753883,287.025940 126.221367,289.623291 
	C130.224365,291.950562 132.547119,290.404541 134.769531,286.862793 
	C140.878220,277.127533 147.097443,267.455811 153.507828,257.916809 
	C172.775177,229.246002 194.360245,202.371597 217.141022,176.441299 
	C225.939697,166.426132 234.641190,156.276978 246.153503,149.150330 
	C247.738495,148.169144 249.567322,147.581833 252.271286,146.369019 
	C252.075821,150.399887 252.374756,153.437836 251.713577,156.250061 
	C249.086548,167.423508 246.681900,178.692062 243.218475,189.615799 
	C238.338654,205.006943 232.501648,220.092178 227.247040,235.367767 
	C223.569977,246.057373 223.782867,256.609436 229.067383,266.863434 
	C232.029831,272.611664 235.071426,274.451813 241.294220,274.100616 
	C260.574585,273.012512 279.857605,271.971161 299.140900,270.936432 
	C300.911041,270.841461 302.690674,270.923828 305.339478,270.923828 
	C304.315155,273.534973 303.691589,275.362549 302.895264,277.111420 
	C300.134491,283.174316 297.182373,289.153046 294.537109,295.265076 
	C278.370056,332.620178 267.472382,371.445709 261.877167,411.783813 
	C261.074799,417.568298 264.016266,420.565460 268.215454,422.990845 
	C271.994110,425.173309 274.125793,424.019684 274.850189,419.659454 
	C275.750183,414.242157 276.361420,408.774872 277.335999,403.372253 
	C284.743195,362.309937 297.454651,322.985321 316.028351,285.584412 
	C318.396118,280.816528 322.364410,276.187531 316.381927,269.806702 
	C338.377838,269.806702 358.690491,269.699921 379.001373,269.843384 
	C393.084747,269.942841 406.850830,272.173462 420.135529,277.020477 
	C421.225616,277.418152 422.351532,277.820648 423.492371,277.957031 
	C427.064423,278.383972 428.968750,276.375427 427.257751,273.257446 
	C425.689758,270.400085 423.212067,267.189606 420.369049,266.055695 
	C413.762939,263.420837 406.791290,261.442841 399.795105,260.095612 
	C380.903961,256.457886 361.771454,256.151245 342.596283,256.841217 
	C308.981628,258.050842 275.360229,259.083130 241.751862,260.442017 
	C237.838150,260.600281 236.637787,259.015991 237.264954,255.981888 
	C238.504059,249.987366 239.962769,243.996155 241.909531,238.197937 
	C247.578766,221.312637 253.863220,204.628128 259.263824,187.660370 
	C263.049164,175.767441 265.999847,163.580231 264.972748,150.850586 
	C263.567078,133.428955 251.635284,126.983940 236.818115,136.051712 
	C231.612488,139.237427 226.516586,143.038956 222.418854,147.518280 
	C209.047867,162.134430 196.169449,177.200867 183.072067,192.068115 
	C181.840332,193.466309 180.400970,194.681610 179.058014,195.981827 
	C184.803223,179.444839 191.497711,163.852676 197.712112,148.071472 
	C200.135101,141.918411 201.941193,135.428955 203.190430,128.931641 
	C204.638351,121.401062 202.422546,114.695198 196.041946,109.897682 
	C189.673660,105.109421 182.759888,104.715645 175.822647,108.341431 
	C170.816483,110.957916 166.028122,114.019104 161.275253,117.087418 
	C138.764160,131.619934 119.600998,149.688065 104.245033,171.686539 
	C99.366043,178.676041 96.387306,186.367508 97.116600,195.111084 
	C97.568207,200.525452 100.850121,204.661774 105.744644,206.236328 
	C108.623558,207.162476 110.764366,206.425461 110.259758,203.188446 
	C108.507660,191.948837 113.847336,183.373581 120.750381,175.696228 
	C129.423828,166.049896 138.079880,156.231705 147.858612,147.777557 
	C158.509598,138.569321 170.374863,130.750183 181.867340,122.544807 
	C183.969070,121.044212 186.820755,120.594055 189.326263,119.659012 
	C189.873474,120.166908 190.420685,120.674812 190.967896,121.182709 
	C174.002457,168.593262 153.825394,214.655548 130.926224,260.382050 
z"/>
<path fill="#FDFEFE" opacity="1.000000" stroke="none" 
	d="
M131.085327,260.045349 
	C153.825394,214.655548 174.002457,168.593262 190.967896,121.182709 
	C190.420685,120.674812 189.873474,120.166908 189.326263,119.659012 
	C186.820755,120.594055 183.969070,121.044212 181.867340,122.544807 
	C170.374863,130.750183 158.509598,138.569321 147.858612,147.777557 
	C138.079880,156.231705 129.423828,166.049896 120.750381,175.696228 
	C113.847336,183.373581 108.507660,191.948837 110.259758,203.188446 
	C110.764366,206.425461 108.623558,207.162476 105.744644,206.236328 
	C100.850121,204.661774 97.568207,200.525452 97.116600,195.111084 
	C96.387306,186.367508 99.366043,178.676041 104.245033,171.686539 
	C119.600998,149.688065 138.764160,131.619934 161.275253,117.087418 
	C166.028122,114.019104 170.816483,110.957916 175.822647,108.341431 
	C182.759888,104.715645 189.673660,105.109421 196.041946,109.897682 
	C202.422546,114.695198 204.638351,121.401062 203.190430,128.931641 
	C201.941193,135.428955 200.135101,141.918411 197.712112,148.071472 
	C191.497711,163.852676 184.803223,179.444839 179.058014,195.981827 
	C180.400970,194.681610 181.840332,193.466309 183.072067,192.068115 
	C196.169449,177.200867 209.047867,162.134430 222.418854,147.518280 
	C226.516586,143.038956 231.612488,139.237427 236.818115,136.051712 
	C251.635284,126.983940 263.567078,133.428955 264.972748,150.850586 
	C265.999847,163.580231 263.049164,175.767441 259.263824,187.660370 
	C253.863220,204.628128 247.578766,221.312637 241.909531,238.197937 
	C239.962769,243.996155 238.504059,249.987366 237.264954,255.981888 
	C236.637787,259.015991 237.838150,260.600281 241.751862,260.442017 
	C275.360229,259.083130 308.981628,258.050842 342.596283,256.841217 
	C361.771454,256.151245 380.903961,256.457886 399.795105,260.095612 
	C406.791290,261.442841 413.762939,263.420837 420.369049,266.055695 
	C423.212067,267.189606 425.689758,270.400085 427.257751,273.257446 
	C428.968750,276.375427 427.064423,278.383972 423.492371,277.957031 
	C422.351532,277.820648 421.225616,277.418152 420.135529,277.020477 
	C406.850830,272.173462 393.084747,269.942841 379.001373,269.843384 
	C358.690491,269.699921 338.377838,269.806702 316.381927,269.806702 
	C322.364410,276.187531 318.396118,280.816528 316.028351,285.584412 
	C297.454651,322.985321 284.743195,362.309937 277.335999,403.372253 
	C276.361420,408.774872 275.750183,414.242157 274.850189,419.659454 
	C274.125793,424.019684 271.994110,425.173309 268.215454,422.990845 
	C264.016266,420.565460 261.074799,417.568298 261.877167,411.783813 
	C267.472382,371.445709 278.370056,332.620178 294.537109,295.265076 
	C297.182373,289.153046 300.134491,283.174316 302.895264,277.111420 
	C303.691589,275.362549 304.315155,273.534973 305.339478,270.923828 
	C302.690674,270.923828 300.911041,270.841461 299.140900,270.936432 
	C279.857605,271.971161 260.574585,273.012512 241.294220,274.100616 
	C235.071426,274.451813 232.029831,272.611664 229.067383,266.863434 
	C223.782867,256.609436 223.569977,246.057373 227.247040,235.367767 
	C232.501648,220.092178 238.338654,205.006943 243.218475,189.615799 
	C246.681900,178.692062 249.086548,167.423508 251.713577,156.250061 
	C252.374756,153.437836 252.075821,150.399887 252.271286,146.369019 
	C249.567322,147.581833 247.738495,148.169144 246.153503,149.150330 
	C234.641190,156.276978 225.939697,166.426132 217.141022,176.441299 
	C194.360245,202.371597 172.775177,229.246002 153.507828,257.916809 
	C147.097443,267.455811 140.878220,277.127533 134.769531,286.862793 
	C132.547119,290.404541 130.224365,291.950562 126.221367,289.623291 
	C121.753883,287.025940 119.469223,282.677277 121.270828,279.018250 
	C124.360657,272.742859 127.694710,266.587677 131.085327,260.045349 
z"/>
</svg>